<?xml version="1.0" encoding="utf-8"?>
<!-- Generator: Adobe Illustrator 23.0.3, SVG Export Plug-In . SVG Version: 6.00 Build 0)  -->
<svg version="1.1" id="Warstwa_1" xmlns="http://www.w3.org/2000/svg" xmlns:xlink="http://www.w3.org/1999/xlink" x="0px" y="0px"
	 viewBox="0 0 841.89 595.28" style="enable-background:new 0 0 841.89 595.28;" xml:space="preserve">
<g>
	<path d="M480.24,243c0-31.53-25.38-57.23-56.78-57.78v-0.03h-59.81c-1.1,0-2,0.9-2,2v111.6c0,1.1,0.9,2,2,2h58.79v0.01
		c0.13,0,0.26-0.01,0.38-0.01h0.64v-0.02C454.86,300.23,480.24,274.53,480.24,243z M422.82,296.79h-57.18V189.2h56.79
		c29.67,0,53.8,24.14,53.8,53.8C476.24,272.54,452.31,296.59,422.82,296.79z"/>
	<path d="M375.06,300.79c-1.1,0-2-0.9-2-2V187.2c0-1.1,0.9-2,2-2s2,0.9,2,2v111.6C377.06,299.9,376.16,300.79,375.06,300.79z"/>
	<path d="M375.79,268.78c-0.51,0-1.02-0.2-1.41-0.59c-0.78-0.78-0.78-2.05,0-2.83l72.6-72.6c0.78-0.78,2.05-0.78,2.83,0
		c0.78,0.78,0.78,2.05,0,2.83l-72.6,72.6C376.82,268.58,376.31,268.78,375.79,268.78z"/>
	<rect x="441.72" y="233.86" transform="matrix(0.628 -0.7782 0.7782 0.628 -49.641 447.9615)" width="4" height="84.08"/>
	<rect x="456.62" y="221.8" transform="matrix(0.628 -0.7782 0.7782 0.628 -40.6304 457.9038)" width="4" height="99.3"/>
	<path d="M375.06,288c-0.51,0-1.02-0.2-1.41-0.59c-0.78-0.78-0.78-2.05,0-2.83l84.37-84.37c0.78-0.78,2.05-0.78,2.83,0
		c0.78,0.78,0.78,2.05,0,2.83l-84.37,84.37C376.08,287.81,375.57,288,375.06,288z"/>
</g>
<g>
	<path d="M352.05,352.21v-0.93c1.98-0.26,2.24-0.54,1.82-1.82c-0.38-1.22-0.99-2.85-1.66-4.7h-6.72c-0.48,1.38-0.93,2.69-1.34,4
		c-0.64,1.95-0.42,2.27,1.98,2.53v0.93h-7.01v-0.93c2.08-0.29,2.5-0.51,3.62-3.33l6.59-16.7l1.12-0.32
		c1.98,5.5,4.13,11.52,6.18,17.05c0.99,2.75,1.44,3.07,3.52,3.3v0.93H352.05z M349.01,335.42h-0.1c-0.99,2.66-1.95,5.34-2.91,7.94
		h5.73L349.01,335.42z"/>
	<path d="M372.4,331.42c4.06,0,7.07,0.83,9.09,2.75c1.57,1.5,2.72,3.84,2.72,6.85c0,3.84-1.5,6.69-3.94,8.54
		c-2.4,1.82-5.63,2.66-9.57,2.66h-7.68v-0.93c2.72-0.19,2.98-0.38,2.98-3.1v-12.74c0-2.72-0.26-2.88-2.69-3.07v-0.96H372.4z
		 M369.01,347.96c0,2.4,0.96,3.04,3.26,3.04c5.7,0,8.51-4.26,8.51-9.5c0-3.26-1.18-6.05-3.55-7.52c-1.41-0.99-3.23-1.44-5.38-1.44
		c-1.34,0-2.11,0.19-2.43,0.42c-0.29,0.22-0.42,0.61-0.42,1.82V347.96z"/>
	<path d="M416.98,332.34c-2.18,0.32-2.53,0.61-3.46,3.23c-0.74,2.08-2.62,8.03-5.28,16.96h-1.12c-1.76-5.06-3.87-10.91-5.54-15.62
		h-0.06c-1.76,5.5-3.52,10.56-5.12,15.62h-1.15c-1.66-5.76-3.46-11.33-5.22-17.02c-0.8-2.59-1.28-2.91-3.2-3.17v-0.93h8.06v0.93
		c-2.37,0.29-2.4,0.61-1.95,2.24c1.25,4.19,2.46,8.38,3.81,12.77h0.06c1.66-5.28,3.46-10.5,5.06-15.65h1.06
		c1.79,5.18,3.65,10.3,5.54,15.68h0.06c1.34-4.22,3.04-10.24,3.52-12.45c0.45-1.92,0.32-2.3-2.21-2.59v-0.93h7.14V332.34z"/>
	<path d="M440.12,341.56c0,6.91-4.86,11.13-10.75,11.13s-10.5-4.54-10.5-10.69c0-5.7,4.03-11.07,10.85-11.07
		C435.25,330.94,440.12,335.16,440.12,341.56z M422.45,341.18c0,5.89,3.14,10.33,7.58,10.33c3.46,0,6.5-2.98,6.5-9.09
		c0-6.69-3.33-10.3-7.46-10.3C425.59,332.12,422.45,335.26,422.45,341.18z"/>
	<path d="M458.77,352.21c-2.3-2.62-4.9-5.89-7.65-9.25c-0.74-0.9-1.18-1.02-1.7-0.93v6.01c0,2.78,0.29,3.04,2.91,3.23v0.93h-8.54
		v-0.93c2.4-0.19,2.69-0.45,2.69-3.23v-12.45c0-2.88-0.29-3.04-2.82-3.26v-0.93h8.48v0.93c-2.43,0.19-2.72,0.42-2.72,3.26v5.57
		c0.67-0.19,1.34-0.64,2.27-1.5c1.82-1.79,3.84-3.87,5.18-5.6c0.93-1.09,0.9-1.44-0.58-1.63l-0.67-0.1v-0.93h7.78v0.93
		c-2.34,0.22-3.17,0.54-5.18,2.4c-1.34,1.22-3.46,3.36-5.47,5.44c2.34,3.01,5.66,6.85,7.36,8.8c1.63,1.76,2.34,2.11,3.84,2.3v0.93
		H458.77z"/>
	<path d="M478.55,352.21v-0.93c1.98-0.26,2.24-0.54,1.82-1.82c-0.38-1.22-0.99-2.85-1.66-4.7h-6.72c-0.48,1.38-0.93,2.69-1.34,4
		c-0.64,1.95-0.42,2.27,1.98,2.53v0.93h-7.01v-0.93c2.08-0.29,2.5-0.51,3.62-3.33l6.59-16.7l1.12-0.32
		c1.98,5.5,4.13,11.52,6.18,17.05c0.99,2.75,1.44,3.07,3.52,3.3v0.93H478.55z M475.51,335.42h-0.1c-0.99,2.66-1.95,5.34-2.91,7.94
		h5.73L475.51,335.42z"/>
	<path d="M504.44,336.47c-0.35-1.57-0.67-2.4-1.09-2.94c-0.54-0.7-1.09-0.96-3.42-0.96h-2.11v15.65c0,2.56,0.26,2.88,3.26,3.07v0.93
		h-9.41v-0.93c2.88-0.19,3.14-0.51,3.14-3.07v-15.65h-1.82c-2.66,0-3.29,0.29-3.71,0.99c-0.38,0.54-0.7,1.47-1.06,2.91h-0.99
		c0.13-1.98,0.32-4.13,0.38-5.86h0.67c0.45,0.74,0.86,0.8,1.76,0.8h12.7c0.86,0,1.15-0.19,1.63-0.8h0.7c0,1.44,0.16,3.87,0.32,5.76
		L504.44,336.47z"/>
	<path d="M242.52,362.42c4.06,0,7.07,0.83,9.09,2.75c1.57,1.5,2.72,3.84,2.72,6.85c0,3.84-1.5,6.69-3.94,8.54
		c-2.4,1.82-5.63,2.66-9.57,2.66h-7.68v-0.93c2.72-0.19,2.98-0.38,2.98-3.1v-12.74c0-2.72-0.26-2.88-2.69-3.07v-0.96H242.52z
		 M239.13,378.96c0,2.4,0.96,3.04,3.26,3.04c5.7,0,8.51-4.26,8.51-9.5c0-3.26-1.18-6.05-3.55-7.52c-1.41-0.99-3.23-1.44-5.38-1.44
		c-1.34,0-2.11,0.19-2.43,0.42c-0.29,0.22-0.42,0.61-0.42,1.82V378.96z"/>
	<path d="M276.89,383.47c-0.35,0-0.7,0-1.09-0.03c-2.72-0.13-4-0.86-5.44-2.94c-1.06-1.5-2.18-3.46-3.1-5.02
		c-0.58-0.93-1.12-1.31-2.66-1.31h-0.93v5.02c0,2.69,0.29,2.91,2.82,3.1v0.93h-8.64v-0.93c2.59-0.19,2.88-0.42,2.88-3.1v-12.77
		c0-2.69-0.29-2.85-2.75-3.07v-0.93h8.13c2.43,0,4,0.29,5.22,1.12c1.31,0.83,2.14,2.24,2.14,4.19c0,2.75-1.73,4.42-4.06,5.44
		c0.54,1.02,1.86,3.17,2.82,4.61c1.15,1.7,1.82,2.56,2.56,3.36c0.83,0.9,1.54,1.28,2.24,1.47L276.89,383.47z M265.08,373.07
		c1.57,0,2.62-0.26,3.42-0.9c1.18-0.96,1.7-2.24,1.7-3.94c0-3.46-2.21-4.74-4.51-4.74c-0.93,0-1.44,0.13-1.7,0.32
		c-0.22,0.19-0.32,0.54-0.32,1.38v7.87H265.08z"/>
	<path d="M302.81,383.21c-2.3-2.62-4.9-5.89-7.65-9.25c-0.74-0.9-1.18-1.02-1.7-0.93v6.01c0,2.78,0.29,3.04,2.91,3.23v0.93h-8.54
		v-0.93c2.4-0.19,2.69-0.45,2.69-3.23v-12.45c0-2.88-0.29-3.04-2.82-3.26v-0.93h8.48v0.93c-2.43,0.19-2.72,0.42-2.72,3.26v5.57
		c0.67-0.19,1.34-0.64,2.27-1.5c1.82-1.79,3.84-3.87,5.18-5.6c0.93-1.09,0.9-1.44-0.58-1.63l-0.67-0.1v-0.93h7.78v0.93
		c-2.34,0.22-3.17,0.54-5.18,2.4c-1.34,1.22-3.46,3.36-5.47,5.44c2.34,3.01,5.66,6.85,7.36,8.8c1.63,1.76,2.34,2.11,3.84,2.3v0.93
		H302.81z"/>
	<path d="M326.33,378.13c-0.19,1.06-0.86,4.13-1.15,5.09h-14.69v-0.93c2.69-0.19,2.98-0.42,2.98-3.14v-12.7
		c0-2.72-0.22-2.88-2.82-3.1v-0.93h8.61v0.93c-2.5,0.19-2.82,0.35-2.82,3.1v12.61c0,1.7,0.16,2.3,0.77,2.62
		c0.61,0.35,1.66,0.38,2.94,0.38c1.7,0,2.78-0.16,3.52-0.99c0.58-0.64,1.15-1.66,1.66-3.17L326.33,378.13z"/>
	<path d="M341.85,383.21v-0.93c1.98-0.26,2.24-0.54,1.82-1.82c-0.38-1.22-0.99-2.85-1.66-4.7h-6.72c-0.48,1.38-0.93,2.69-1.34,4
		c-0.64,1.95-0.42,2.27,1.98,2.53v0.93h-7.01v-0.93c2.08-0.29,2.5-0.51,3.62-3.33l6.59-16.7l1.12-0.32
		c1.98,5.5,4.13,11.52,6.18,17.05c0.99,2.75,1.44,3.07,3.52,3.3v0.93H341.85z M338.81,366.42h-0.1c-0.99,2.66-1.95,5.34-2.91,7.94
		h5.73L338.81,366.42z"/>
	<path d="M372.85,363.34c-1.89,0.16-2.62,0.61-2.78,1.89c-0.1,0.9-0.19,2.24-0.19,5.06v2.82c0,3.68-0.58,6.43-2.4,8.35
		c-1.47,1.54-3.62,2.24-5.76,2.24c-1.92,0-3.78-0.45-5.22-1.57c-1.89-1.44-2.78-3.84-2.78-7.58v-7.9c0-2.91-0.29-3.04-2.78-3.29
		v-0.93h8.51v0.93c-2.46,0.19-2.72,0.38-2.72,3.29v7.2c0,5.12,1.98,8.03,5.86,8.03c4.45,0,5.92-3.68,5.92-8.99v-2.59
		c0-2.82-0.1-4.13-0.22-5.12c-0.19-1.22-0.86-1.66-3.1-1.82v-0.93h7.68V363.34z"/>
	<path d="M385.11,362.42c4.06,0,7.07,0.83,9.09,2.75c1.57,1.5,2.72,3.84,2.72,6.85c0,3.84-1.5,6.69-3.94,8.54
		c-2.4,1.82-5.63,2.66-9.57,2.66h-7.68v-0.93c2.72-0.19,2.98-0.38,2.98-3.1v-12.74c0-2.72-0.26-2.88-2.69-3.07v-0.96H385.11z
		 M381.72,378.96c0,2.4,0.96,3.04,3.26,3.04c5.7,0,8.51-4.26,8.51-9.5c0-3.26-1.18-6.05-3.55-7.52c-1.41-0.99-3.23-1.44-5.38-1.44
		c-1.34,0-2.11,0.19-2.43,0.42c-0.29,0.22-0.42,0.61-0.42,1.82V378.96z"/>
	<path d="M400.47,383.21v-0.93c2.56-0.19,2.85-0.38,2.85-3.1v-12.7c0-2.72-0.29-2.91-2.85-3.14v-0.93h8.67v0.93
		c-2.56,0.22-2.85,0.42-2.85,3.14v12.7c0,2.72,0.29,2.91,2.85,3.1v0.93H400.47z"/>
	<path d="M423.96,383.21v-0.93c1.98-0.26,2.24-0.54,1.82-1.82c-0.38-1.22-0.99-2.85-1.66-4.7h-6.72c-0.48,1.38-0.93,2.69-1.34,4
		c-0.64,1.95-0.42,2.27,1.98,2.53v0.93h-7.01v-0.93c2.08-0.29,2.5-0.51,3.62-3.33l6.59-16.7l1.12-0.32
		c1.98,5.5,4.13,11.52,6.18,17.05c0.99,2.75,1.44,3.07,3.52,3.3v0.93H423.96z M420.92,366.42h-0.1c-0.99,2.66-1.95,5.34-2.91,7.94
		h5.73L420.92,366.42z"/>
	<path d="M458.68,383.21c-2.3-2.62-4.9-5.89-7.65-9.25c-0.74-0.9-1.18-1.02-1.7-0.93v6.01c0,2.78,0.29,3.04,2.91,3.23v0.93h-8.54
		v-0.93c2.4-0.19,2.69-0.45,2.69-3.23v-12.45c0-2.88-0.29-3.04-2.82-3.26v-0.93h8.48v0.93c-2.43,0.19-2.72,0.42-2.72,3.26v5.57
		c0.67-0.19,1.34-0.64,2.27-1.5c1.82-1.79,3.84-3.87,5.18-5.6c0.93-1.09,0.9-1.44-0.58-1.63l-0.67-0.1v-0.93h7.78v0.93
		c-2.34,0.22-3.17,0.54-5.18,2.4c-1.34,1.22-3.46,3.36-5.47,5.44c2.34,3.01,5.66,6.85,7.36,8.8c1.63,1.76,2.34,2.11,3.84,2.3v0.93
		H458.68z"/>
	<path d="M478.45,383.21v-0.93c1.98-0.26,2.24-0.54,1.82-1.82c-0.38-1.22-0.99-2.85-1.66-4.7h-6.72c-0.48,1.38-0.93,2.69-1.34,4
		c-0.64,1.95-0.42,2.27,1.98,2.53v0.93h-7.01v-0.93c2.08-0.29,2.5-0.51,3.62-3.33l6.59-16.7l1.12-0.32
		c1.98,5.5,4.13,11.52,6.18,17.05c0.99,2.75,1.44,3.07,3.52,3.3v0.93H478.45z M475.41,366.42h-0.1c-0.99,2.66-1.95,5.34-2.91,7.94
		h5.73L475.41,366.42z"/>
	<path d="M511.41,363.34c-1.79,0.1-2.53,0.51-2.69,1.92c-0.1,0.99-0.19,2.43-0.19,5.38v12.86h-1.09l-13.57-16.61h-0.06v7.87
		c0,2.91,0.1,4.45,0.19,5.38c0.16,1.57,0.86,2.02,3.07,2.14v0.93h-7.62v-0.93c1.82-0.13,2.62-0.54,2.78-2.08
		c0.1-0.99,0.22-2.53,0.22-5.44v-6.98c0-2.27-0.06-2.5-0.67-3.26c-0.64-0.8-1.31-1.06-2.82-1.18v-0.93h4.96l13.15,15.68h0.1v-7.46
		c0-2.91-0.13-4.38-0.22-5.31c-0.16-1.41-0.9-1.86-3.17-1.98v-0.93h7.62V363.34z"/>
	<path d="M514.61,383.21v-0.93c2.56-0.19,2.85-0.38,2.85-3.1v-12.7c0-2.72-0.29-2.91-2.85-3.14v-0.93h8.67v0.93
		c-2.56,0.22-2.85,0.42-2.85,3.14v12.7c0,2.72,0.29,2.91,2.85,3.1v0.93H514.61z"/>
	<path d="M543.35,378.13c-0.16,1.12-0.83,4.1-1.09,5.09h-15.61v-0.93c2.88-0.22,3.17-0.48,3.17-3.1v-12.64
		c0-2.85-0.29-2.98-2.72-3.2v-0.93h14.4c0,0.77,0.16,2.94,0.29,4.64l-0.99,0.16c-0.29-1.31-0.64-2.08-1.06-2.72
		c-0.48-0.7-1.34-0.93-3.55-0.93h-2.27c-1.02,0-1.12,0.1-1.12,1.06v7.2h2.88c2.85,0,3.07-0.26,3.46-2.4h0.96v6.18h-0.96
		c-0.42-2.27-0.67-2.46-3.46-2.46h-2.88v5.92c0,1.5,0.19,2.24,0.77,2.62c0.61,0.38,1.73,0.38,3.26,0.38c2.3,0,3.23-0.26,3.94-1.06
		c0.58-0.67,1.15-1.76,1.63-3.04L543.35,378.13z"/>
	<path d="M565.91,377.9c-0.45,1.47-1.25,3.87-1.82,4.93c-0.9,0.22-3.62,0.86-5.89,0.86c-8.06,0-11.58-5.54-11.58-10.59
		c0-6.72,5.15-11.17,12.42-11.17c2.59,0,4.8,0.7,5.66,0.86c0.26,1.79,0.48,3.14,0.67,4.9l-0.99,0.22c-0.86-3.46-2.88-4.77-6.18-4.77
		c-5.22,0-8,4.48-8,9.31c0,5.95,3.42,10.01,8.22,10.01c3.17,0,4.9-1.76,6.53-4.93L565.91,377.9z"/>
	<path d="M584.18,383.21c-2.3-2.62-4.9-5.89-7.65-9.25c-0.74-0.9-1.18-1.02-1.7-0.93v6.01c0,2.78,0.29,3.04,2.91,3.23v0.93h-8.54
		v-0.93c2.4-0.19,2.69-0.45,2.69-3.23v-12.45c0-2.88-0.29-3.04-2.82-3.26v-0.93h8.48v0.93c-2.43,0.19-2.72,0.42-2.72,3.26v5.57
		c0.67-0.19,1.34-0.64,2.27-1.5c1.82-1.79,3.84-3.87,5.18-5.6c0.93-1.09,0.9-1.44-0.58-1.63l-0.67-0.1v-0.93h7.78v0.93
		c-2.34,0.22-3.17,0.54-5.18,2.4c-1.34,1.22-3.46,3.36-5.47,5.44c2.34,3.01,5.66,6.85,7.36,8.8c1.63,1.76,2.34,2.11,3.84,2.3v0.93
		H584.18z"/>
	<path d="M603.95,383.21v-0.93c1.98-0.26,2.24-0.54,1.82-1.82c-0.38-1.22-0.99-2.85-1.66-4.7h-6.72c-0.48,1.38-0.93,2.69-1.34,4
		c-0.64,1.95-0.42,2.27,1.98,2.53v0.93h-7.01v-0.93c2.08-0.29,2.5-0.51,3.62-3.33l6.59-16.7l1.12-0.32
		c1.98,5.5,4.13,11.52,6.17,17.05c0.99,2.75,1.44,3.07,3.52,3.3v0.93H603.95z M600.91,366.42h-0.1c-0.99,2.66-1.95,5.34-2.91,7.94
		h5.73L600.91,366.42z"/>
</g>
<g>
	<path d="M308.25,412.86c-1.23-1.39-2.53-2.96-3.97-4.66c-0.37-0.43-0.59-0.5-0.86-0.45v3.04c0,1.41,0.16,1.52,1.47,1.62v0.45h-4.16
		v-0.45c1.22-0.1,1.36-0.21,1.36-1.62v-6.26c0-1.46-0.14-1.54-1.41-1.63v-0.45h4.13v0.45c-1.23,0.1-1.39,0.21-1.39,1.63v2.8
		c0.35-0.1,0.67-0.32,1.12-0.74c0.88-0.85,1.97-1.95,2.69-2.83c0.46-0.58,0.46-0.74-0.27-0.82l-0.35-0.05v-0.45h3.84v0.45
		c-1.22,0.11-1.58,0.27-2.61,1.2c-0.61,0.56-1.74,1.7-2.83,2.8c1.22,1.5,2.96,3.49,3.76,4.35c0.85,0.91,1.17,1.06,1.95,1.15v0.45
		H308.25z"/>
	<path d="M319.57,412.86v-0.45c1.01-0.13,1.15-0.26,0.94-0.88c-0.21-0.63-0.53-1.49-0.88-2.47h-3.41c-0.26,0.72-0.5,1.39-0.7,2.07
		c-0.35,1.01-0.21,1.17,0.99,1.28v0.45h-3.47v-0.45c1.01-0.14,1.23-0.24,1.79-1.65l3.31-8.4l0.5-0.14c0.99,2.75,2.06,5.79,3.09,8.58
		c0.51,1.38,0.72,1.52,1.76,1.62v0.45H319.57z M318,404.3h-0.03c-0.51,1.38-1.02,2.77-1.5,4.08h2.95L318,404.3z"/>
	<path d="M337.36,402.91c-0.9,0.05-1.28,0.26-1.34,0.96c-0.06,0.48-0.1,1.2-0.1,2.69v6.45h-0.5l-6.82-8.39h-0.03v4.02
		c0,1.47,0.05,2.24,0.1,2.71c0.08,0.82,0.45,1.01,1.54,1.07v0.45h-3.79v-0.45c0.93-0.05,1.33-0.26,1.41-1.04
		c0.05-0.5,0.1-1.26,0.1-2.74v-3.52c0-1.17-0.03-1.23-0.32-1.62c-0.32-0.4-0.67-0.53-1.42-0.59v-0.45h2.37l6.67,8.04h0.05v-3.94
		c0-1.47-0.06-2.21-0.11-2.66c-0.08-0.72-0.46-0.93-1.57-0.99v-0.45h3.78V402.91z"/>
	<path d="M350,410.22c-0.22,0.74-0.62,1.92-0.91,2.45c-0.45,0.11-1.79,0.43-2.95,0.43c-3.99,0-5.73-2.75-5.73-5.3
		c0-3.36,2.59-5.59,6.16-5.59c1.3,0,2.39,0.35,2.83,0.43c0.13,0.91,0.22,1.55,0.32,2.42l-0.48,0.11c-0.42-1.7-1.38-2.39-3.11-2.39
		c-2.67,0-4.1,2.26-4.1,4.69c0,2.99,1.76,5.04,4.19,5.04c1.63,0,2.5-0.88,3.3-2.48L350,410.22z"/>
	<path d="M361.17,410.33c-0.1,0.53-0.42,2.03-0.56,2.53h-7.71v-0.45c1.46-0.11,1.58-0.24,1.58-1.54v-6.37c0-1.44-0.13-1.49-1.38-1.6
		v-0.45h7.14c0,0.4,0.08,1.49,0.13,2.3l-0.46,0.08c-0.14-0.67-0.3-1.02-0.51-1.38c-0.22-0.34-0.66-0.45-1.81-0.45h-1.22
		c-0.5,0-0.53,0.03-0.53,0.51v3.63h1.5c1.44,0,1.52-0.13,1.73-1.2h0.46v3.07h-0.46c-0.21-1.15-0.32-1.25-1.71-1.25h-1.52v3.03
		c0,0.75,0.1,1.09,0.38,1.3c0.3,0.19,0.86,0.21,1.66,0.21c1.22,0,1.67-0.13,2.02-0.54c0.27-0.32,0.58-0.86,0.78-1.5L361.17,410.33z"
		/>
	<path d="M372,410.35c-0.1,0.5-0.43,2.02-0.58,2.51h-7.25v-0.45c1.34-0.1,1.47-0.21,1.47-1.57v-6.4c0-1.36-0.11-1.44-1.41-1.54
		v-0.45h4.18v0.45c-1.26,0.1-1.41,0.18-1.41,1.54v6.32c0,0.86,0.08,1.18,0.37,1.34c0.32,0.18,0.86,0.21,1.54,0.21
		c0.88,0,1.42-0.08,1.79-0.5c0.27-0.32,0.58-0.83,0.82-1.57L372,410.35z"/>
	<path d="M381.28,412.86v-0.45c1.01-0.13,1.15-0.26,0.94-0.88c-0.21-0.63-0.53-1.49-0.88-2.47h-3.41c-0.26,0.72-0.5,1.39-0.7,2.07
		c-0.35,1.01-0.21,1.17,0.99,1.28v0.45h-3.47v-0.45c1.01-0.14,1.23-0.24,1.79-1.65l3.31-8.4l0.5-0.14c0.99,2.75,2.06,5.79,3.09,8.58
		c0.51,1.38,0.72,1.52,1.76,1.62v0.45H381.28z M379.71,404.3h-0.03c-0.51,1.38-1.02,2.77-1.5,4.08h2.95L379.71,404.3z"/>
	<path d="M397.6,412.99c-0.19,0-0.37,0-0.56-0.02c-1.2-0.06-1.87-0.42-2.59-1.46c-0.56-0.78-1.14-1.78-1.62-2.56
		c-0.27-0.45-0.54-0.64-1.38-0.64h-0.51v2.54c0,1.36,0.14,1.46,1.42,1.55v0.45h-4.21v-0.45c1.31-0.1,1.46-0.19,1.46-1.55v-6.43
		c0-1.36-0.13-1.41-1.38-1.52v-0.45h3.97c1.17,0,1.95,0.14,2.56,0.54c0.64,0.42,1.06,1.14,1.06,2.1c0,1.38-0.85,2.22-2.03,2.74
		c0.27,0.53,0.94,1.6,1.42,2.32c0.58,0.83,0.91,1.25,1.3,1.67c0.43,0.48,0.8,0.66,1.15,0.75L397.6,412.99z M391.71,407.79
		c0.82,0,1.34-0.13,1.75-0.45c0.62-0.48,0.88-1.12,0.88-1.98c0-1.73-1.14-2.37-2.35-2.37c-0.46,0-0.74,0.06-0.86,0.16
		c-0.11,0.08-0.18,0.27-0.18,0.7v3.94H391.71z"/>
	<path d="M400.19,412.86v-0.45c1.31-0.1,1.44-0.19,1.44-1.55v-6.4c0-1.36-0.13-1.46-1.44-1.55v-0.45h4.24v0.45
		c-1.31,0.1-1.44,0.19-1.44,1.55v6.4c0,1.38,0.13,1.46,1.44,1.55v0.45H400.19z"/>
	<path d="M413.37,412.86v-0.45c1.01-0.13,1.15-0.26,0.94-0.88c-0.21-0.63-0.53-1.49-0.88-2.47h-3.41c-0.26,0.72-0.5,1.39-0.7,2.07
		c-0.35,1.01-0.21,1.17,0.99,1.28v0.45h-3.47v-0.45c1.01-0.14,1.23-0.24,1.79-1.65l3.31-8.4l0.5-0.14c0.99,2.75,2.06,5.79,3.09,8.58
		c0.51,1.38,0.72,1.52,1.76,1.62v0.45H413.37z M411.81,404.3h-0.03c-0.51,1.38-1.02,2.77-1.5,4.08h2.95L411.81,404.3z"/>
	<path d="M432.22,412.86v-0.45c1.01-0.13,1.15-0.26,0.94-0.88c-0.21-0.63-0.53-1.49-0.88-2.47h-3.41c-0.26,0.72-0.5,1.39-0.7,2.07
		c-0.35,1.01-0.21,1.17,0.99,1.28v0.45h-3.47v-0.45c1.01-0.14,1.23-0.24,1.79-1.65l3.31-8.4l0.5-0.14c0.99,2.75,2.06,5.79,3.09,8.58
		c0.51,1.38,0.72,1.52,1.76,1.62v0.45H432.22z M430.65,404.3h-0.03c-0.51,1.38-1.02,2.77-1.5,4.08h2.95L430.65,404.3z"/>
	<path d="M443.68,402.46c2.03,0,3.54,0.42,4.53,1.36c0.78,0.77,1.34,1.94,1.34,3.44c0,1.92-0.74,3.35-1.97,4.27
		c-1.2,0.93-2.79,1.33-4.75,1.33h-3.79v-0.43c1.38-0.1,1.5-0.19,1.5-1.55v-6.42c0-1.38-0.13-1.44-1.36-1.54v-0.46H443.68z
		 M441.92,410.77c0,1.22,0.53,1.52,1.7,1.52c2.99,0,4.37-2.24,4.37-4.8c0-1.65-0.61-3.07-1.89-3.83c-0.72-0.46-1.65-0.66-2.72-0.66
		c-0.67,0-1.09,0.08-1.25,0.19c-0.16,0.11-0.21,0.29-0.21,0.91V410.77z"/>
	<path d="M467.38,402.91c-1.1,0.14-1.25,0.27-1.73,1.6c-0.37,1.02-1.33,4.05-2.64,8.52h-0.5c-0.88-2.56-1.98-5.65-2.8-7.97h-0.03
		c-0.9,2.82-1.79,5.39-2.61,7.97h-0.5c-0.85-2.88-1.75-5.7-2.63-8.55c-0.4-1.31-0.64-1.44-1.62-1.57v-0.45h3.89v0.45
		c-1.17,0.14-1.2,0.27-0.96,1.09c0.63,2.16,1.25,4.32,1.95,6.59h0.03c0.85-2.72,1.78-5.36,2.59-7.97h0.46
		c0.9,2.63,1.82,5.22,2.8,7.97h0.03c0.67-2.13,1.55-5.27,1.81-6.4c0.22-0.96,0.16-1.14-1.1-1.28v-0.45h3.54V402.91z"/>
	<path d="M480.35,407.53c0,3.46-2.42,5.57-5.35,5.57c-2.9,0-5.2-2.26-5.2-5.33c0-2.88,2.02-5.55,5.38-5.55
		C477.9,402.22,480.35,404.33,480.35,407.53z M471.44,407.33c0,3.01,1.65,5.2,3.91,5.2c1.78,0,3.38-1.49,3.38-4.56
		c0-3.38-1.76-5.17-3.86-5.17C473.07,402.79,471.44,404.33,471.44,407.33z"/>
	<path d="M491.2,412.86c-1.23-1.39-2.53-2.96-3.97-4.66c-0.37-0.43-0.59-0.5-0.86-0.45v3.04c0,1.41,0.16,1.52,1.47,1.62v0.45h-4.16
		v-0.45c1.22-0.1,1.36-0.21,1.36-1.62v-6.26c0-1.46-0.14-1.54-1.41-1.63v-0.45h4.13v0.45c-1.23,0.1-1.39,0.21-1.39,1.63v2.8
		c0.35-0.1,0.67-0.32,1.12-0.74c0.88-0.85,1.97-1.95,2.69-2.83c0.46-0.58,0.46-0.74-0.27-0.82l-0.35-0.05v-0.45h3.84v0.45
		c-1.22,0.11-1.58,0.27-2.61,1.2c-0.61,0.56-1.75,1.7-2.83,2.8c1.22,1.5,2.96,3.49,3.76,4.35c0.85,0.91,1.17,1.06,1.95,1.15v0.45
		H491.2z"/>
	<path d="M502.51,412.86v-0.45c1.01-0.13,1.15-0.26,0.94-0.88c-0.21-0.63-0.53-1.49-0.88-2.47h-3.41c-0.26,0.72-0.5,1.39-0.7,2.07
		c-0.35,1.01-0.21,1.17,0.99,1.28v0.45h-3.47v-0.45c1.01-0.14,1.23-0.24,1.79-1.65l3.31-8.4l0.5-0.14c0.99,2.75,2.07,5.79,3.09,8.58
		c0.51,1.38,0.72,1.52,1.76,1.62v0.45H502.51z M500.94,404.3h-0.03c-0.51,1.38-1.02,2.77-1.5,4.08h2.95L500.94,404.3z"/>
	<path d="M518.64,410.22c-0.22,0.74-0.62,1.92-0.91,2.45c-0.45,0.11-1.79,0.43-2.95,0.43c-3.99,0-5.73-2.75-5.73-5.3
		c0-3.36,2.59-5.59,6.16-5.59c1.3,0,2.38,0.35,2.83,0.43c0.13,0.91,0.22,1.55,0.32,2.42l-0.48,0.11c-0.42-1.7-1.38-2.39-3.11-2.39
		c-2.67,0-4.1,2.26-4.1,4.69c0,2.99,1.76,5.04,4.19,5.04c1.63,0,2.5-0.88,3.3-2.48L518.64,410.22z"/>
	<path d="M529.28,412.86c-1.23-1.39-2.53-2.96-3.97-4.66c-0.37-0.43-0.59-0.5-0.87-0.45v3.04c0,1.41,0.16,1.52,1.47,1.62v0.45h-4.16
		v-0.45c1.22-0.1,1.36-0.21,1.36-1.62v-6.26c0-1.46-0.14-1.54-1.41-1.63v-0.45h4.13v0.45c-1.23,0.1-1.39,0.21-1.39,1.63v2.8
		c0.35-0.1,0.67-0.32,1.12-0.74c0.88-0.85,1.97-1.95,2.69-2.83c0.46-0.58,0.46-0.74-0.27-0.82l-0.35-0.05v-0.45h3.84v0.45
		c-1.22,0.11-1.58,0.27-2.61,1.2c-0.61,0.56-1.74,1.7-2.83,2.8c1.22,1.5,2.96,3.49,3.76,4.35c0.85,0.91,1.17,1.06,1.95,1.15v0.45
		H529.28z"/>
	<path d="M540.59,412.86v-0.45c1.01-0.13,1.15-0.26,0.94-0.88c-0.21-0.63-0.53-1.49-0.88-2.47h-3.41c-0.26,0.72-0.5,1.39-0.71,2.07
		c-0.35,1.01-0.21,1.17,0.99,1.28v0.45h-3.47v-0.45c1.01-0.14,1.23-0.24,1.79-1.65l3.31-8.4l0.5-0.14c0.99,2.75,2.06,5.79,3.09,8.58
		c0.51,1.38,0.72,1.52,1.76,1.62v0.45H540.59z M539.02,404.3h-0.03c-0.51,1.38-1.02,2.77-1.5,4.08h2.95L539.02,404.3z"/>
</g>
</svg>
